<?xml version="1.0" standalone="no"?>
<!DOCTYPE svg PUBLIC "-//W3C//DTD SVG 20010904//EN"
 "http://www.w3.org/TR/2001/REC-SVG-20010904/DTD/svg10.dtd">
<svg version="1.0" xmlns="http://www.w3.org/2000/svg"
 width="852.000000pt" height="276.000000pt" viewBox="0 0 852.000000 276.000000"
 preserveAspectRatio="xMidYMid meet">

<g transform="translate(0.000000,276.000000) scale(0.100000,-0.100000)"
fill="#000000" stroke="none">
<path d="M1293 1569 c-16 -16 -18 -665 -3 -689 8 -12 35 -15 147 -14 115 2
148 5 194 23 113 43 190 143 210 273 20 127 -19 247 -106 327 -78 72 -118 85
-285 89 -109 3 -148 1 -157 -9z m323 -97 c131 -68 180 -242 110 -386 -49 -99
-148 -150 -283 -144 l-68 3 -3 279 -2 278 102 -4 c80 -3 112 -9 144 -26z"/>
<path d="M4015 1564 c-45 -23 -66 -45 -86 -89 -17 -36 -19 -70 -19 -312 0
-234 2 -274 16 -287 20 -20 38 -20 58 0 13 13 16 46 16 204 l0 189 56 3 c41 2
60 8 68 20 20 33 -4 53 -68 56 l-56 3 0 39 c0 50 38 97 85 106 43 8 59 27 51
59 -6 22 -12 25 -49 25 -23 0 -55 -7 -72 -16z"/>
<path d="M6902 1508 c-20 -20 -17 -478 3 -526 31 -73 86 -112 159 -112 40 0
46 3 52 25 7 30 -10 55 -38 55 -28 0 -76 27 -88 49 -5 11 -10 76 -10 145 l0
125 51 3 c36 2 55 8 63 21 19 30 -4 52 -63 55 l-51 3 0 73 c0 76 -9 96 -45 96
-12 0 -26 -5 -33 -12z"/>
<path d="M4705 1362 c-49 -23 -79 -55 -100 -104 -11 -29 -15 -77 -15 -208 l0
-170 26 -12 c23 -11 29 -10 45 11 17 21 19 42 19 186 l0 163 31 31 c53 54 139
39 174 -29 11 -22 15 -67 15 -190 l0 -160 25 -12 c19 -8 28 -8 40 2 12 10 15
40 15 167 0 166 9 207 51 237 30 21 98 21 128 0 42 -30 51 -71 51 -238 0 -145
1 -156 20 -166 14 -8 26 -8 41 0 19 11 20 18 17 200 l-3 188 -31 39 c-38 48
-106 83 -159 83 -44 0 -112 -28 -134 -53 -12 -15 -17 -14 -59 15 -59 41 -136
48 -197 20z"/>
<path d="M3365 1361 c-142 -37 -223 -181 -181 -324 52 -178 286 -234 420 -101
51 52 71 102 70 179 0 101 -48 181 -136 226 -42 21 -129 32 -173 20z m154
-108 c89 -67 99 -181 23 -257 -121 -121 -325 -7 -281 157 30 114 167 167 258
100z"/>
<path d="M5681 1361 c-48 -13 -110 -59 -146 -109 -25 -37 -30 -55 -33 -117 -5
-89 9 -135 56 -187 54 -60 104 -82 187 -83 56 0 80 5 120 26 42 21 50 30 50
54 0 43 -26 54 -72 28 -78 -43 -151 -37 -211 20 -67 62 -70 169 -9 235 73 79
204 70 263 -17 34 -51 31 -59 -18 -54 -24 2 -68 1 -98 -4 -47 -7 -55 -12 -58
-31 -7 -45 12 -52 135 -52 136 0 153 7 153 58 -2 151 -166 271 -319 233z"/>
<path d="M6324 1359 c-61 -18 -127 -71 -156 -128 -115 -221 130 -459 347 -337
29 16 45 20 45 12 0 -28 26 -49 53 -42 l27 6 0 157 c0 138 -2 162 -21 200 -50
104 -184 164 -295 132z m146 -94 c105 -53 121 -202 31 -278 -89 -74 -215 -47
-262 57 -24 53 -24 90 2 143 42 87 142 121 229 78z"/>
<path d="M2175 1336 c-64 -29 -110 -82 -130 -148 -19 -65 -19 -91 1 -157 19
-67 70 -122 136 -151 44 -19 65 -22 128 -17 122 7 179 35 411 200 l66 47 71
-22 c57 -17 74 -18 86 -9 20 17 30 88 19 131 -11 43 -35 48 -119 26 l-58 -15
-130 55 c-160 68 -225 84 -341 84 -73 0 -99 -5 -140 -24z m263 -47 c55 -13
312 -119 311 -128 -1 -10 -258 -177 -316 -205 -67 -33 -79 -33 -55 2 61 89 62
213 2 300 -28 39 -28 42 -9 42 11 0 41 -5 67 -11z m-116 -57 c132 -142 -39
-379 -181 -249 -107 99 -33 310 104 293 30 -4 49 -14 77 -44z m578 -72 c0 -24
2 -23 -40 -8 -30 10 -32 12 -14 19 35 14 54 10 54 -11z"/>
<path d="M2200 1135 c-10 -12 -10 -21 -2 -40 15 -32 50 -33 61 -2 17 45 -29
78 -59 42z"/>
</g>
</svg>
